<svg xmlns="http://www.w3.org/2000/svg" xmlns:xlink="http://www.w3.org/1999/xlink" width="500" zoomAndPan="magnify" viewBox="0 0 375 374.999991" height="500" preserveAspectRatio="xMidYMid meet" version="1.0"><defs><clipPath id="2cd165c193"><path d="M 46 37.5 L 329 37.5 L 329 335 L 46 335 Z M 46 37.5 " clip-rule="nonzero"/></clipPath><clipPath id="d7b139ae61"><path d="M 45.9375 53.25 L 45.9375 321.75 C 45.9375 330.449219 52.988281 337.5 61.6875 337.5 L 313.3125 337.5 C 322.011719 337.5 329.0625 330.449219 329.0625 321.75 L 329.0625 53.25 C 329.0625 44.550781 322.011719 37.5 313.3125 37.5 L 61.6875 37.5 C 52.988281 37.5 45.9375 44.550781 45.9375 53.25 Z M 45.9375 53.25 " clip-rule="nonzero"/></clipPath></defs><g clip-path="url(#2cd165c193)"><g clip-path="url(#d7b139ae61)"><path fill="#ffffff" d="M 326.375 37.484375 L 293.871094 37.484375 L 212.125 129.257812 L 228.046875 147.828125 Z M 238.453125 228.402344 C 230.871094 219.503906 220.269531 214.253906 208.597656 213.628906 C 196.902344 213.015625 185.816406 217.082031 177.328125 225.117188 L 88.671875 309.035156 C 86.804688 310.800781 83.917969 310.757812 82.101562 308.945312 C 80.554688 307.398438 80.273438 305.015625 81.417969 303.152344 L 159.054688 176.59375 C 168.679688 160.898438 167.082031 140.972656 155.074219 127.015625 L 78.042969 37.484375 L 46.027344 37.484375 L 136.691406 142.824219 C 141.800781 148.765625 142.480469 157.242188 138.386719 163.917969 L 60.75 290.46875 C 53.714844 301.929688 55.445312 316.578125 64.957031 326.089844 C 76.128906 337.257812 93.863281 337.503906 105.335938 326.644531 L 193.996094 242.726562 C 197.605469 239.304688 202.324219 237.558594 207.296875 237.839844 C 212.261719 238.105469 216.769531 240.339844 219.992188 244.125 L 297.042969 334.585938 L 328.972656 334.585938 Z M 238.453125 228.402344 " fill-opacity="1" fill-rule="nonzero"/></g></g></svg>