<svg xmlns="http://www.w3.org/2000/svg" xmlns:xlink="http://www.w3.org/1999/xlink" width="500" zoomAndPan="magnify" viewBox="0 0 375 374.999991" height="500" preserveAspectRatio="xMidYMid meet" version="1.0"><defs><clipPath id="322f218f2c"><path d="M 46 37.5 L 329.4375 37.5 L 329.4375 335 L 46 335 Z M 46 37.5 " clip-rule="nonzero"/></clipPath><clipPath id="a97fa78ee9"><path d="M 45.9375 53.25 L 45.9375 321.75 C 45.9375 330.449219 52.988281 337.5 61.6875 337.5 L 313.3125 337.5 C 322.011719 337.5 329.0625 330.449219 329.0625 321.75 L 329.0625 53.25 C 329.0625 44.550781 322.011719 37.5 313.3125 37.5 L 61.6875 37.5 C 52.988281 37.5 45.9375 44.550781 45.9375 53.25 Z M 45.9375 53.25 " clip-rule="nonzero"/></clipPath></defs><g clip-path="url(#322f218f2c)"><g clip-path="url(#a97fa78ee9)"><path fill="#000000" d="M 326.746094 37.484375 L 294.199219 37.484375 L 212.34375 129.257812 L 228.289062 147.828125 Z M 238.707031 228.402344 C 231.117188 219.503906 220.5 214.253906 208.8125 213.628906 C 197.105469 213.015625 186.003906 217.082031 177.503906 225.117188 L 88.726562 309.035156 C 86.859375 310.800781 83.96875 310.757812 82.148438 308.945312 C 80.597656 307.398438 80.316406 305.015625 81.464844 303.152344 L 159.203125 176.59375 C 168.84375 160.898438 167.242188 140.972656 155.21875 127.015625 L 78.085938 37.484375 L 46.027344 37.484375 L 136.8125 142.824219 C 141.925781 148.765625 142.609375 157.242188 138.507812 163.917969 L 60.769531 290.46875 C 53.726562 301.929688 55.457031 316.578125 64.980469 326.089844 C 76.167969 337.257812 93.925781 337.503906 105.414062 326.644531 L 194.191406 242.726562 C 197.808594 239.304688 202.53125 237.558594 207.507812 237.839844 C 212.480469 238.105469 216.996094 240.339844 220.222656 244.125 L 297.378906 334.585938 L 329.347656 334.585938 Z M 238.707031 228.402344 " fill-opacity="1" fill-rule="nonzero"/></g></g></svg>